<mxfile host="app.diagrams.net" modified="2024-03-29T03:51:50.760Z" agent="Mozilla/5.0 (Macintosh; Intel Mac OS X 10_15_7) AppleWebKit/537.36 (KHTML, like Gecko) Chrome/123.0.0.0 Safari/537.36" version="22.1.16" etag="7NzXAm-mxJT-2YBV4iuC" type="github">
  <diagram name="第 1 页" id="K62pHf7v11gjTkVKZaFR">
    <mxGraphModel>
      <root>
        <mxCell id="0" />
        <mxCell id="1" parent="0" />
      </root>
    </mxGraphModel>
  </diagram>
</mxfile>
